<svg width="40" height="40" viewBox="0 0 40 40" fill="none" xmlns="http://www.w3.org/2000/svg">
<path d="M31.7916 33.9583C28.4305 33.7083 25.243 32.8819 22.2291 31.4791C19.2152 30.0763 16.5139 28.1805 14.125 25.7916C11.7361 23.4027 9.84719 20.7013 8.4583 17.6874C7.06941 14.6735 6.24997 11.486 5.99997 8.12492C5.94441 7.54159 6.11802 7.03464 6.5208 6.60409C6.92358 6.17353 7.41664 5.95825 7.99997 5.95825H13.6666C14.1389 5.95825 14.5486 6.10409 14.8958 6.39575C15.243 6.68742 15.4722 7.05547 15.5833 7.49992L16.5833 11.9583C16.6389 12.3194 16.618 12.6666 16.5208 12.9999C16.4236 13.3333 16.2639 13.611 16.0416 13.8333L12 17.9166C12.5555 18.9721 13.1944 19.986 13.9166 20.9583C14.6389 21.9305 15.4444 22.8471 16.3333 23.7083C17.1666 24.5416 18.0555 25.3124 19 26.0208C19.9444 26.7291 20.9444 27.361 22 27.9166L26.125 23.9166C26.3472 23.6944 26.625 23.5346 26.9583 23.4374C27.2916 23.3402 27.6389 23.3194 28 23.3749L32.4583 24.3333C32.9305 24.4721 33.3055 24.7152 33.5833 25.0624C33.8611 25.4096 34 25.8194 34 26.2916V31.9583C34 32.5416 33.7777 33.0346 33.3333 33.4374C32.8889 33.8402 32.375 34.0138 31.7916 33.9583Z" fill="url(#paint0_linear_402_164)"/>
<defs>
<linearGradient id="paint0_linear_402_164" x1="19.9949" y1="5.95825" x2="19.9949" y2="33.9684" gradientUnits="userSpaceOnUse">
<stop stop-color="#329CFF"/>
<stop offset="1" stop-color="#0D4ECB"/>
</linearGradient>
</defs>
</svg>
