<svg width="40" height="40" viewBox="0 0 40 40" fill="none" xmlns="http://www.w3.org/2000/svg">
<path fill-rule="evenodd" clip-rule="evenodd" d="M20.8786 14.4806V17.4039C21.4905 16.4712 22.3343 15.7134 23.3272 15.2049C24.3201 14.6963 25.4281 14.4545 26.5426 14.503C32.4944 14.503 33.7812 18.2239 33.7812 23.0646V32.9199H28.2687V24.1826C28.2687 22.0982 27.8484 19.4177 24.6029 19.4177C21.4556 19.4177 20.9182 21.6865 20.9182 24.0275V32.9199H15.4229V14.4806H20.8786ZM11.7313 9.84666C11.7306 10.3927 11.5687 10.9265 11.266 11.3809C10.9632 11.8354 10.533 12.1904 10.0293 12.4014C9.52581 12.6106 8.97145 12.6654 8.43676 12.5586C7.90207 12.4519 7.41123 12.1884 7.02671 11.8019C6.64146 11.4151 6.37919 10.923 6.27286 10.3875C6.16654 9.85205 6.22091 9.29709 6.42914 8.79244C6.63737 8.28779 6.99016 7.85597 7.44315 7.55129C7.89615 7.24661 8.42911 7.08267 8.97503 7.08008C9.33779 7.0803 9.69695 7.15209 10.0319 7.29133C10.3669 7.43057 10.6711 7.63453 10.9271 7.89152C11.1832 8.14851 11.386 8.45349 11.524 8.78898C11.662 9.12448 11.7324 9.4839 11.7313 9.84666Z" fill="url(#paint0_linear_402_154)"/>
<path d="M11.7312 14.5029H6.21875V32.9198H11.7312V14.5029Z" fill="url(#paint1_linear_402_154)"/>
<defs>
<linearGradient id="paint0_linear_402_154" x1="20.0005" y1="7.08008" x2="20.0005" y2="32.9199" gradientUnits="userSpaceOnUse">
<stop stop-color="#329CFF"/>
<stop offset="1" stop-color="#0D4ECB"/>
</linearGradient>
<linearGradient id="paint1_linear_402_154" x1="8.97499" y1="14.5029" x2="8.97499" y2="32.9198" gradientUnits="userSpaceOnUse">
<stop stop-color="#329CFF"/>
<stop offset="1" stop-color="#0D4ECB"/>
</linearGradient>
</defs>
</svg>
