<svg width="30" height="30" viewBox="0 0 30 30" fill="none" xmlns="http://www.w3.org/2000/svg">
<path d="M27.1475 15C27.1475 13.2138 25.4737 11.6488 22.8137 10.625C22.85 10.4 22.91 10.1625 22.9387 9.94375C23.21 7.37125 22.5975 5.515 21.215 4.71625C19.6712 3.82375 17.4862 4.48375 15.2762 6.265C13.0625 4.48625 10.875 3.82625 9.33496 4.71625C7.95121 5.515 7.33496 7.37125 7.61121 9.94375C7.63371 10.1625 7.69496 10.4 7.72996 10.625C5.07121 11.6488 3.39746 13.2138 3.39746 15C3.39746 16.7863 5.07121 18.3513 7.72996 19.375C7.69496 19.6 7.63371 19.8375 7.61121 20.0563C7.33871 22.6288 7.95121 24.485 9.33496 25.2838C9.80496 25.55 10.3387 25.6863 10.8787 25.6788C12.5174 25.5293 14.0612 24.844 15.2712 23.7288C16.4818 24.8438 18.0259 25.5292 19.665 25.6788C20.2059 25.6864 20.7391 25.5501 21.21 25.2838C22.5925 24.485 23.21 22.6288 22.9337 20.0563C22.91 19.8375 22.85 19.6 22.8087 19.375C25.4737 18.3513 27.1475 16.7863 27.1475 15ZM19.635 5.565C19.9667 5.55748 20.2946 5.63814 20.585 5.79875C21.5012 6.32875 21.9037 7.79 21.69 9.81375C21.675 9.94625 21.6362 10.0913 21.6175 10.2263C20.5662 9.9225 19.4925 9.70375 18.405 9.5725C17.7453 8.69279 17.015 7.86838 16.2212 7.1075C17.1701 6.24944 18.3639 5.71004 19.635 5.565ZM9.73871 16.5413C9.95371 16.9663 10.1575 17.3913 10.4 17.8125C10.6425 18.2338 10.8937 18.6325 11.15 19.0238C10.4718 18.9065 9.80104 18.7495 9.14121 18.5538C9.301 17.8719 9.50051 17.1999 9.73871 16.5413ZM9.13996 11.4463C9.79978 11.2505 10.4705 11.0935 11.1487 10.9763C10.8925 11.3675 10.6425 11.7688 10.3987 12.1875C10.155 12.6063 9.95246 13.0338 9.73746 13.4588C9.49996 12.8 9.29996 12.1288 9.13996 11.4463ZM10.375 15C10.7077 14.2525 11.0781 13.5224 11.485 12.8125C11.8975 12.1025 12.3475 11.415 12.83 10.75C13.6037 10.6738 14.4175 10.625 15.2725 10.625C16.1275 10.625 16.9387 10.6688 17.7125 10.75C18.1964 11.4161 18.6466 12.1061 19.0612 12.8175C19.4675 13.5263 19.8375 14.255 20.17 15C19.5062 16.4989 18.6881 17.9245 17.7287 19.2538C16.0951 19.4217 14.4486 19.4217 12.815 19.2538C12.3375 18.5871 11.8928 17.8975 11.4825 17.1875C11.0765 16.4776 10.7069 15.7474 10.375 15ZM20.145 17.8125C20.395 17.3913 20.5925 16.9663 20.8075 16.5413C21.0462 17.2 21.245 17.8725 21.405 18.555C20.7449 18.7497 20.0742 18.9067 19.3962 19.025C19.6487 18.6325 19.9012 18.2313 20.1425 17.8125H20.145ZM20.8075 13.4588C20.5925 13.0338 20.3887 12.6088 20.145 12.1875C19.9064 11.7764 19.6563 11.372 19.395 10.975C20.0725 11.0938 20.7425 11.25 21.4025 11.445C21.2435 12.1275 21.044 12.8 20.805 13.4588H20.8075ZM15.2712 7.925C15.7712 8.39375 16.2425 8.89125 16.6837 9.41625C16.2212 9.39125 15.7512 9.375 15.2725 9.375C14.7937 9.375 14.3225 9.39125 13.8587 9.41625C14.3 8.89125 14.7712 8.395 15.2712 7.925ZM9.95996 5.8C10.2504 5.63939 10.5782 5.55873 10.91 5.56625C12.18 5.71144 13.3728 6.25036 14.3212 7.1075C13.5278 7.86872 12.7975 8.6931 12.1375 9.5725C11.05 9.70375 9.97746 9.9225 8.92621 10.2275C8.90746 10.0913 8.86746 9.94625 8.85371 9.81375C8.63996 7.79 9.04246 6.33 9.95996 5.8ZM4.64746 15C4.64746 13.875 5.86496 12.7125 7.95371 11.8675C8.22621 12.9388 8.58371 13.9863 9.02371 15C8.58371 16.0138 8.22621 17.0625 7.95371 18.1325C5.86496 17.2875 4.64746 16.125 4.64746 15ZM9.95996 24.2013C9.04246 23.6725 8.63996 22.21 8.85371 20.1863C8.86746 20.0538 8.90746 19.9088 8.92621 19.7725C9.97621 20.0763 11.0475 20.295 12.1312 20.4275C12.7952 21.3113 13.5297 22.1398 14.3275 22.905C12.5512 24.2913 10.935 24.765 9.95996 24.2013ZM13.8475 20.5825C14.315 20.6088 14.7887 20.625 15.2725 20.625C15.7562 20.625 16.2287 20.6088 16.6962 20.5825C16.2509 21.1158 15.7751 21.6229 15.2712 22.1013C14.7674 21.6232 14.292 21.1161 13.8475 20.5825ZM20.585 24.2013C19.6075 24.765 17.9912 24.2913 16.21 22.9038C17.0082 22.1395 17.7427 21.3113 18.4062 20.4275C19.4907 20.2953 20.5628 20.0767 21.6125 19.7738C21.6312 19.9088 21.67 20.0538 21.685 20.1863C21.9037 22.21 21.5 23.6725 20.585 24.2013ZM22.585 18.1338C22.3142 17.0624 21.958 16.0145 21.52 15C21.96 13.985 22.3175 12.9375 22.59 11.8663C24.6787 12.7125 25.8975 13.875 25.8975 15C25.8975 16.125 24.6787 17.2875 22.59 18.1338H22.585Z" fill="#A3A3A3"/>
<path d="M15.2688 17.2162C15.7117 17.2177 16.1451 17.0879 16.5142 16.8431C16.8834 16.5983 17.1716 16.2495 17.3426 15.841C17.5136 15.4324 17.5596 14.9823 17.4748 14.5475C17.3901 14.1128 17.1783 13.713 16.8663 13.3985C16.5544 13.0841 16.1562 12.8693 15.7221 12.7811C15.2881 12.6929 14.8376 12.7354 14.4277 12.9032C14.0178 13.071 13.6668 13.3565 13.4192 13.7237C13.1715 14.0909 13.0383 14.5233 13.0363 14.9662V14.9737C13.0351 15.2677 13.092 15.559 13.2037 15.831C13.3153 16.1029 13.4796 16.3501 13.687 16.5585C13.8944 16.7668 14.1409 16.9321 14.4123 17.045C14.6837 17.1579 14.9748 17.2161 15.2688 17.2162Z" fill="#A3A3A3"/>
</svg>
