<svg width="30" height="30" viewBox="0 0 30 30" fill="none" xmlns="http://www.w3.org/2000/svg">
<path d="M26.3702 13.4817L16.5183 3.62975C16.1005 3.20992 15.5503 3 15 3C14.4497 3 13.8995 3.20992 13.4817 3.62975L11.5333 5.57812L13.9443 7.98912C14.7452 7.51834 15.7887 7.62024 16.4755 8.30706C17.1624 8.99388 17.2622 10.0374 16.7914 10.8363L19.1617 13.2065C19.9626 12.7357 21.0061 12.8376 21.6929 13.5245C22.5081 14.3397 22.5081 15.6603 21.6929 16.4755C20.8777 17.2908 19.5571 17.2908 18.7418 16.4755C18.055 15.7887 17.9531 14.7452 18.4239 13.9443L16.0537 11.574C15.8845 11.6739 15.7072 11.7473 15.5217 11.7942V18.2038C16.4205 18.4361 17.087 19.2452 17.087 20.2174C17.087 21.3709 16.1535 22.3043 15 22.3043C13.8465 22.3043 12.913 21.3709 12.913 20.2174C12.913 19.2452 13.5795 18.4361 14.4783 18.2038V11.7942C14.1297 11.7045 13.7975 11.5313 13.5245 11.2582C12.8376 10.5713 12.7378 9.52786 13.2086 8.72895L10.7955 6.31591L3.62976 13.4817C2.79008 14.3193 2.79008 15.6807 3.62976 16.5183L13.4817 26.3702C13.8995 26.7901 14.4497 27 15 27C15.5503 27 16.1005 26.7901 16.5183 26.3702L26.3702 16.5183C27.2099 15.6807 27.2099 14.3193 26.3702 13.4817Z" fill="#B8B8B8"/>
</svg>
