<svg width="40" height="40" viewBox="0 0 40 40" fill="none" xmlns="http://www.w3.org/2000/svg">
<path d="M6.00008 33.3334C5.08341 33.3334 4.29869 33.007 3.64591 32.3542C2.99314 31.7015 2.66675 30.9167 2.66675 30.0001V10.0001C2.66675 9.08341 2.99314 8.29869 3.64591 7.64591C4.29869 6.99314 5.08341 6.66675 6.00008 6.66675H32.6667C33.5834 6.66675 34.3681 6.99314 35.0209 7.64591C35.6737 8.29869 36.0001 9.08341 36.0001 10.0001V30.0001C36.0001 30.9167 35.6737 31.7015 35.0209 32.3542C34.3681 33.007 33.5834 33.3334 32.6667 33.3334H6.00008ZM19.3334 21.6667L32.6667 13.3334V10.0001L19.3334 18.3334L6.00008 10.0001V13.3334L19.3334 21.6667Z" fill="url(#paint0_linear_402_168)"/>
<defs>
<linearGradient id="paint0_linear_402_168" x1="19.3334" y1="6.66675" x2="19.3334" y2="33.3334" gradientUnits="userSpaceOnUse">
<stop stop-color="#329CFF"/>
<stop offset="1" stop-color="#0D4ECB"/>
</linearGradient>
</defs>
</svg>
