<svg width="40" height="40" viewBox="0 0 40 40" fill="none" xmlns="http://www.w3.org/2000/svg">
<path fill-rule="evenodd" clip-rule="evenodd" d="M20.01 3.33325C16.0341 3.33504 12.194 4.7801 9.20333 7.39992C6.17106 10.0587 4.16948 13.6985 3.54833 17.6833C2.91345 21.6848 3.68941 25.7826 5.74333 29.2749C7.76719 32.7259 10.9599 35.338 14.7433 36.6383C15.5833 36.7966 15.8817 36.2666 15.8817 35.8149C15.8817 35.4066 15.865 34.0616 15.8583 32.6349C11.225 33.6683 10.2483 30.6183 10.2483 30.6183C9.94693 29.5923 9.29141 28.7064 8.39833 28.1183C6.88667 27.0566 8.515 27.0833 8.515 27.0833C9.04333 27.1566 9.54833 27.3549 9.99 27.6599C10.4333 27.9649 10.8017 28.3699 11.0683 28.8433C11.2933 29.2649 11.5983 29.6366 11.965 29.9349C12.511 30.3868 13.1824 30.6604 13.8887 30.7188C14.595 30.7772 15.3022 30.6176 15.915 30.2616C15.99 29.3949 16.365 28.5849 16.9733 27.9783C13.275 27.5466 9.38333 26.0816 9.38333 19.5283C9.35789 17.8385 9.97162 16.2015 11.1017 14.9449C10.5917 13.4701 10.6487 11.8583 11.2617 10.4233C11.2617 10.4233 12.66 9.96492 15.8433 12.1733C18.5707 11.4079 21.456 11.4079 24.1833 12.1733C27.36 9.96492 28.75 10.4233 28.75 10.4233C29.3667 11.8533 29.4267 13.4699 28.9183 14.9449C30.0479 16.2015 30.6605 17.8388 30.6333 19.5283C30.6333 26.0933 26.735 27.5366 23.0267 27.9583C23.4268 28.3762 23.7344 28.8737 23.9294 29.4185C24.1244 29.9633 24.2024 30.543 24.1583 31.1199C24.1583 33.4066 24.1383 35.2483 24.1383 35.8099C24.1383 36.2633 24.4383 36.7966 25.2833 36.6299C29.0598 35.3236 32.2447 32.7102 34.2633 29.2616C36.3132 25.772 37.0867 21.6786 36.4517 17.6816C35.83 13.7005 33.8304 10.0641 30.8017 7.40659C27.8162 4.78813 23.9827 3.34092 20.0117 3.33325H20.01Z" fill="url(#paint0_linear_402_159)"/>
<defs>
<linearGradient id="paint0_linear_402_159" x1="20.0002" y1="3.33325" x2="20.0002" y2="36.6669" gradientUnits="userSpaceOnUse">
<stop stop-color="#329CFF"/>
<stop offset="1" stop-color="#0D4ECB"/>
</linearGradient>
</defs>
</svg>
