<svg width="30" height="30" viewBox="0 0 30 30" fill="none" xmlns="http://www.w3.org/2000/svg">
<path d="M14.7275 7.15C13.2611 7.13009 11.8388 7.65094 10.7321 8.61311C9.62532 9.57528 8.91172 10.9114 8.7275 12.3663C9.08253 11.7613 9.58057 11.2527 10.1779 10.885C10.7753 10.5174 11.4537 10.3019 12.1537 10.2575C14.265 10.2575 15.8713 12.7225 16.8512 13.4913C17.7869 14.2303 18.8921 14.7243 20.0669 14.9284C21.2416 15.1325 22.4487 15.0402 23.5788 14.66C26.0788 13.8625 27.2463 11.0788 27.5 9.75875C26.2887 11.4825 24.45 12.5175 22.1762 11.2975C20.61 10.4563 19.4387 7 14.7275 7.15ZM8.5 14.9738C7.03375 14.9535 5.61142 15.4741 4.50465 16.4361C3.39788 17.398 2.68424 18.734 2.5 20.1887C2.85559 19.5832 3.35442 19.0742 3.9527 18.7066C4.55097 18.3389 5.23038 18.1237 5.93125 18.08C8.0425 18.08 9.64875 20.545 10.6287 21.3138C11.5644 22.0528 12.6696 22.5468 13.8443 22.7509C15.0191 22.955 16.2262 22.8627 17.3563 22.4825C19.8563 21.685 21.0225 18.9012 21.2775 17.5813C20.065 19.305 18.2275 20.3413 15.9537 19.12C14.3875 18.2788 13.2163 14.8163 8.5 14.9738Z" fill="#A3A3A3"/>
</svg>
