<svg width="30" height="30" viewBox="0 0 30 30" fill="none" xmlns="http://www.w3.org/2000/svg">
<path d="M26.0016 2.4H4.00081C3.11721 2.4 2.40002 3.11719 2.40002 4.00078V25.9992C2.40002 26.8828 3.11721 27.6 4.00081 27.6H25.9992C26.8828 27.6 27.6 26.8828 27.6 26.0016V4.00078C27.6 3.11719 26.8828 2.4 26.0016 2.4ZM16.2 21.7102C16.2 24.1078 14.7938 25.2 12.7407 25.2C10.8844 25.2 9.54612 23.9555 9.00002 22.8L10.8867 21.6586C11.25 22.3031 11.8032 22.8 12.6 22.8C13.3617 22.8 13.8 22.5023 13.8 21.3445V13.8H16.2V21.7102ZM21.4055 25.2C19.2797 25.2 18.0727 24.1289 17.4 22.8L19.2 21.6C19.6899 22.4016 20.2242 23.168 21.3539 23.168C22.3032 23.168 22.8 22.6945 22.8 22.0383C22.8 21.2555 22.2844 20.9766 21.2414 20.5195L20.6696 20.2734C19.0172 19.5703 17.918 18.6891 17.918 16.8234C17.918 15.1078 19.2281 13.8 21.2719 13.8C22.7274 13.8 23.7727 14.3063 24.5274 15.6328L22.7461 16.7789C22.3524 16.0734 21.9305 15.7969 21.2719 15.7969C20.6016 15.7969 20.1774 16.2234 20.1774 16.7789C20.1774 17.4656 20.6016 17.7422 21.5836 18.1688L22.1555 18.4148C24.1032 19.2469 25.2 20.0977 25.2 22.0102C25.2 24.0703 23.5805 25.2 21.4055 25.2Z" fill="#A3A3A3"/>
</svg>
