<svg width="20" height="20" viewBox="0 0 20 20" fill="none" xmlns="http://www.w3.org/2000/svg">
<g clip-path="url(#clip0_15_57)">
<path d="M10.5417 13.0583C10.6584 12.7583 10.5834 12.4166 10.35 12.1833L8.60837 10.4666L8.63337 10.4416C10.0834 8.82496 11.1167 6.96663 11.725 4.99996H13.3417C13.7917 4.99996 14.1667 4.62496 14.1667 4.17496V4.15829C14.1667 3.70829 13.7917 3.33329 13.3417 3.33329H8.33337V2.49996C8.33337 2.04163 7.95837 1.66663 7.50004 1.66663C7.04171 1.66663 6.66671 2.04163 6.66671 2.49996V3.33329H1.65837C1.20837 3.33329 0.833374 3.70829 0.833374 4.15829C0.833374 4.61663 1.20837 4.98329 1.65837 4.98329H10.1417C9.58337 6.59996 8.70004 8.12496 7.50004 9.45829C6.82504 8.71663 6.25837 7.90829 5.78337 7.05829C5.65004 6.81663 5.40837 6.66663 5.13337 6.66663C4.55837 6.66663 4.19171 7.29163 4.47504 7.79163C5.00004 8.73329 5.64171 9.63329 6.39171 10.4666L2.75004 14.0583C2.41671 14.3833 2.41671 14.9166 2.75004 15.2416C3.07504 15.5666 3.60004 15.5666 3.93337 15.2416L7.50004 11.6666L9.18337 13.35C9.60837 13.775 10.3334 13.6166 10.5417 13.0583ZM14.5834 8.33329C14.0834 8.33329 13.6334 8.64163 13.4584 9.11663L10.4 17.2833C10.2 17.7916 10.5834 18.3333 11.125 18.3333C11.45 18.3333 11.7417 18.1333 11.8584 17.825L12.6 15.8333H16.5584L17.3084 17.825C17.425 18.125 17.7167 18.3333 18.0417 18.3333C18.5834 18.3333 18.9667 17.7916 18.775 17.2833L15.7167 9.11663C15.5334 8.64163 15.0834 8.33329 14.5834 8.33329ZM13.2334 14.1666L14.5834 10.5583L15.9334 14.1666H13.2334Z" fill="url(#paint0_linear_15_57)"/>
</g>
<defs>
<linearGradient id="paint0_linear_15_57" x1="9.82923" y1="1.66663" x2="9.82923" y2="18.3333" gradientUnits="userSpaceOnUse">
<stop stop-color="#329CFF"/>
<stop offset="1" stop-color="#0D4ECB"/>
</linearGradient>
<clipPath id="clip0_15_57">
<rect width="20" height="20" fill="white"/>
</clipPath>
</defs>
</svg>
