<svg width="187" height="38" viewBox="0 0 187 38" fill="none" xmlns="http://www.w3.org/2000/svg">
<path d="M19.7344 11.4766C19.6562 10.9297 19.4609 10.4141 19.1484 9.92969C18.8516 9.44531 18.4609 9.03125 17.9766 8.6875C17.5078 8.32812 16.9688 8.04688 16.3594 7.84375C15.7656 7.64062 15.1406 7.53906 14.4844 7.53906C13.8906 7.53906 13.3359 7.60156 12.8203 7.72656C12.3047 7.85156 11.8516 8.04688 11.4609 8.3125C11.0859 8.5625 10.7812 8.89062 10.5469 9.29688C10.3281 9.70312 10.2188 10.1875 10.2188 10.75C10.2188 11.4531 10.3672 12.0156 10.6641 12.4375C10.9766 12.8438 11.3672 13.1797 11.8359 13.4453C12.3203 13.7109 12.8516 13.9219 13.4297 14.0781C14.0078 14.2344 14.5703 14.4062 15.1172 14.5938L21.5625 16.75C22.4531 17.0625 23.2891 17.4922 24.0703 18.0391C24.8516 18.5859 25.5234 19.25 26.0859 20.0312C26.6641 20.8125 27.1172 21.7109 27.4453 22.7266C27.7734 23.7422 27.9375 24.8828 27.9375 26.1484C27.9375 27.8672 27.6172 29.4375 26.9766 30.8594C26.3516 32.2812 25.4688 33.5 24.3281 34.5156C23.1875 35.5312 21.8203 36.3203 20.2266 36.8828C18.6328 37.4453 16.8672 37.7266 14.9297 37.7266C13.5703 37.7266 12.2812 37.5703 11.0625 37.2578C9.85938 36.9609 8.75781 36.5234 7.75781 35.9453C6.75781 35.3672 5.88281 34.6797 5.13281 33.8828C4.38281 33.0703 3.79688 32.1562 3.375 31.1406H0.960938V24.0859H9.44531V25.5391C9.44531 26.2422 9.55469 26.8906 9.77344 27.4844C10.0078 28.0781 10.3516 28.5938 10.8047 29.0312C11.2578 29.4688 11.8281 29.8125 12.5156 30.0625C13.2031 30.2969 14.0078 30.4141 14.9297 30.4141C16.3359 30.4141 17.4062 30.0938 18.1406 29.4531C18.875 28.7969 19.2422 27.8906 19.2422 26.7344C19.2422 26.1406 19.1094 25.6484 18.8438 25.2578C18.5938 24.8516 18.2656 24.5156 17.8594 24.25C17.4531 23.9688 17 23.7344 16.5 23.5469C16 23.3594 15.5078 23.1875 15.0234 23.0312L9.65625 21.2969C8.64062 20.9844 7.65625 20.5469 6.70312 19.9844C5.76562 19.4219 4.92969 18.7188 4.19531 17.875C3.47656 17.0312 2.89844 16.0469 2.46094 14.9219C2.03906 13.7812 1.82812 12.4844 1.82812 11.0312C1.82812 9.34375 2.14062 7.84375 2.76562 6.53125C3.39062 5.20312 4.26562 4.08594 5.39062 3.17969C6.51562 2.27344 7.85156 1.58594 9.39844 1.11719C10.9453 0.648438 12.6406 0.414062 14.4844 0.414062C15.9375 0.414062 17.2812 0.585938 18.5156 0.929688C19.75 1.25781 20.8516 1.70312 21.8203 2.26562C22.8047 2.82812 23.6328 3.47656 24.3047 4.21094C24.9922 4.92969 25.5156 5.67969 25.875 6.46094H28.2188V13.5391H19.7344V11.4766ZM46.0078 35.6875C45.4609 36.0312 44.9609 36.3281 44.5078 36.5781C44.0547 36.8125 43.6016 37 43.1484 37.1406C42.6953 37.2969 42.2266 37.4062 41.7422 37.4688C41.2578 37.5469 40.7266 37.5859 40.1484 37.5859C38.6953 37.5859 37.3906 37.3906 36.2344 37C35.0938 36.5938 34.125 36.0469 33.3281 35.3594C32.5469 34.6562 31.9453 33.8359 31.5234 32.8984C31.1016 31.9453 30.8906 30.9141 30.8906 29.8047C30.8906 28.6797 31.1016 27.6406 31.5234 26.6875C31.9609 25.7344 32.5859 24.9219 33.3984 24.25C34.2109 23.5625 35.2031 23.0312 36.375 22.6562C37.5625 22.2656 38.9141 22.0703 40.4297 22.0703C41.5391 22.0703 42.5469 22.1328 43.4531 22.2578C44.375 22.3672 45.2266 22.5078 46.0078 22.6797V21.9297C46.0078 21.3203 45.8906 20.7969 45.6562 20.3594C45.4219 19.9062 45.0938 19.5391 44.6719 19.2578C44.25 18.9609 43.7422 18.75 43.1484 18.625C42.5547 18.4844 41.9062 18.4141 41.2031 18.4141C39.7344 18.4141 38.4375 18.5625 37.3125 18.8594C36.2031 19.1406 35.1328 19.5547 34.1016 20.1016L31.8516 15.5547C33.4453 14.4609 35.1094 13.625 36.8438 13.0469C38.5938 12.4688 40.4453 12.1797 42.3984 12.1797C43.9141 12.1797 45.3125 12.3516 46.5938 12.6953C47.8906 13.0234 49 13.5703 49.9219 14.3359C50.8438 15.0859 51.5625 16.0703 52.0781 17.2891C52.6094 18.5078 52.875 19.9922 52.875 21.7422V30.5781H56.1328V37H46.0078V35.6875ZM40.6641 32.0547C41.7734 32.0547 42.7812 31.875 43.6875 31.5156C44.5938 31.1562 45.3672 30.7188 46.0078 30.2031V27.1094H40.3828C40.0234 27.1094 39.6719 27.1641 39.3281 27.2734C38.9844 27.3828 38.6719 27.5391 38.3906 27.7422C38.125 27.9453 37.9062 28.1953 37.7344 28.4922C37.5781 28.7891 37.5 29.1328 37.5 29.5234C37.5 30.2422 37.7578 30.8438 38.2734 31.3281C38.8047 31.8125 39.6016 32.0547 40.6641 32.0547ZM61.125 12.7188H72.2344V14.8281C73.2344 14.0312 74.3594 13.3984 75.6094 12.9297C76.8594 12.4609 78.1484 12.2266 79.4766 12.2266C81.3203 12.2266 82.8984 12.5547 84.2109 13.2109C85.5391 13.8516 86.5781 14.8359 87.3281 16.1641C87.8438 15.5859 88.4219 15.0625 89.0625 14.5938C89.7188 14.1094 90.4141 13.6953 91.1484 13.3516C91.8828 12.9922 92.6484 12.7188 93.4453 12.5312C94.2578 12.3281 95.0859 12.2266 95.9297 12.2266C98.8984 12.2266 101.18 13.0469 102.773 14.6875C104.367 16.3281 105.164 18.7266 105.164 21.8828V30.5781H108.609V37H97.5234V23.0781C97.5234 21.7031 97.1641 20.625 96.4453 19.8438C95.7422 19.0625 94.7578 18.6719 93.4922 18.6719C92.6172 18.6719 91.7891 18.8828 91.0078 19.3047C90.2422 19.7109 89.4766 20.4219 88.7109 21.4375C88.7266 21.6094 88.7344 21.7891 88.7344 21.9766C88.7344 22.1484 88.7344 22.3281 88.7344 22.5156V30.5781H92.25V37H81.1641V23.0312C81.1641 22.375 81.0625 21.7812 80.8594 21.25C80.6562 20.7188 80.375 20.2656 80.0156 19.8906C79.6562 19.5156 79.2266 19.2266 78.7266 19.0234C78.2422 18.8047 77.7031 18.6875 77.1094 18.6719C76.3281 18.6562 75.5156 18.8281 74.6719 19.1875C73.8438 19.5469 73.0469 20.2109 72.2812 21.1797V30.5781H76.1719V37H61.0781V30.5781H64.6875V19.1406H61.125V12.7188ZM126.68 12.7188H138.164V30.5781H141.094V37H130.805V34.9375C129.977 35.6875 129.008 36.2656 127.898 36.6719C126.789 37.0781 125.508 37.2812 124.055 37.2812C122.711 37.2812 121.445 37.0703 120.258 36.6484C119.07 36.2266 118.031 35.5938 117.141 34.75C116.266 33.8906 115.57 32.8203 115.055 31.5391C114.555 30.2578 114.305 28.75 114.305 27.0156V19.1406H111.141V12.7188H121.875V27.0156C121.875 28.6406 122.289 29.8594 123.117 30.6719C123.945 31.4688 125.023 31.8672 126.352 31.8672C127.289 31.8672 128.141 31.5781 128.906 31C129.672 30.4219 130.227 29.6406 130.57 28.6562V19.1406H126.68V12.7188ZM150.961 26.3828L151.031 27.1094C151.203 27.8125 151.492 28.4297 151.898 28.9609C152.32 29.4922 152.812 29.9375 153.375 30.2969C153.938 30.6562 154.562 30.9297 155.25 31.1172C155.938 31.2891 156.633 31.375 157.336 31.375C158.039 31.375 158.703 31.3359 159.328 31.2578C159.969 31.1641 160.586 31.0469 161.18 30.9062C161.773 30.75 162.352 30.5781 162.914 30.3906C163.477 30.1875 164.047 29.9766 164.625 29.7578L167.203 34.5625C166.312 35.1094 165.492 35.5781 164.742 35.9688C164.008 36.3438 163.266 36.6562 162.516 36.9062C161.766 37.1562 160.969 37.3359 160.125 37.4453C159.281 37.5703 158.297 37.6328 157.172 37.6328C155.062 37.6328 153.188 37.2891 151.547 36.6016C149.906 35.8984 148.523 34.9531 147.398 33.7656C146.289 32.5781 145.438 31.1875 144.844 29.5938C144.266 28 143.977 26.3125 143.977 24.5312C143.977 22.75 144.281 21.0781 144.891 19.5156C145.516 17.9531 146.391 16.5938 147.516 15.4375C148.641 14.2656 149.984 13.3438 151.547 12.6719C153.109 12 154.844 11.6641 156.75 11.6641C158.656 11.6641 160.344 11.9844 161.812 12.625C163.297 13.25 164.547 14.125 165.562 15.25C166.578 16.3594 167.359 17.6719 167.906 19.1875C168.453 20.6875 168.75 22.3047 168.797 24.0391C168.844 24.4297 168.867 24.8203 168.867 25.2109C168.883 25.5859 168.875 25.9766 168.844 26.3828H150.961ZM156.562 17.5234C155.688 17.5234 154.938 17.6328 154.312 17.8516C153.703 18.0547 153.188 18.3438 152.766 18.7188C152.344 19.0781 152.008 19.4922 151.758 19.9609C151.508 20.4297 151.312 20.9219 151.172 21.4375H161.32C161.211 20.9062 161.055 20.4062 160.852 19.9375C160.648 19.4688 160.367 19.0547 160.008 18.6953C159.648 18.3359 159.188 18.0547 158.625 17.8516C158.078 17.6328 157.391 17.5234 156.562 17.5234ZM171.961 0.53125H182.906V30.5781H186.656V37H171.961V30.5781H175.711V6.95312H171.961V0.53125Z" fill="#141414"/>
</svg>
